{"accessors":[{"bufferView":0,"componentType":5126,"count":124,"min":[-2.1184229850769045,0.0964176207780838,-2.1184191703796388],"max":[2.1184229850769045,2.2139577865600588,2.1184191703796388],"type":"VEC3","name":"Cube.002_vertices#0_POSITION"},{"bufferView":0,"byteOffset":12,"componentType":5120,"count":124,"type":"VEC4","name":"Cube.002_vertices#0_TANGENT"},{"bufferView":0,"byteOffset":16,"componentType":5120,"count":124,"type":"VEC4","name":"Cube.002_vertices#0_NORMAL"},{"bufferView":0,"byteOffset":20,"componentType":5122,"count":124,"type":"VEC2","name":"Cube.002_vertices#0_TEXCOORD_0"},{"bufferView":0,"byteOffset":24,"componentType":5122,"count":124,"type":"VEC2","name":"Cube.002_vertices#0_TEXCOORD_1"},{"bufferView":0,"byteOffset":28,"componentType":5123,"count":124,"type":"VEC4","name":"Cube.002_vertices#0_COLOR_0"},{"bufferView":1,"componentType":5123,"count":390,"type":"SCALAR","name":"Cube.002_indices#0"}],"asset":{"generator":"Khronos glTF Blender I/O v4.0.44 and Asobo Studio MSFS Blender I/O v1.3.3","version":"2.0","extensions":{"ASOBO_asset_optimized":{"BoundingBoxMax":[3.0755107402801515,0.21346454322338105,3.0754995346069338],"BoundingBoxMin":[-3.0755107402801515,0.00929635763168335,-3.0754995346069338],"MajorVersion":4,"MinorVersion":4,"UseCheckerboardMaterialForMissingTextures":true,"UseOnlyFilenameForImageURI":true},"ASOBO_normal_map_convention":{"tangent_space_convention":"DirectX"}}},"bufferViews":[{"buffer":0,"byteLength":4464,"byteStride":36,"target":34962,"name":"BufferViewVertexND"},{"buffer":0,"byteLength":780,"byteOffset":4464,"target":34963,"name":"BufferViewIndex"}],"materials":[{"name":"Material.001","doubleSided":true,"pbrMetallicRoughness":{"baseColorFactor":[0.7656304836273193,0.7941924929618836,0.7727134823799133,1.0],"metallicFactor":0.0,"roughnessFactor":0.5}}],"meshes":[{"primitives":[{"attributes":{"COLOR_0":5,"NORMAL":2,"POSITION":0,"TANGENT":1,"TEXCOORD_0":3,"TEXCOORD_1":4},"indices":6,"material":0,"mode":4,"extras":{"ASOBO_primitive":{"PrimitiveCount":130,"VertexType":"VTX","VertexVersion":2}}}],"name":"Cube.002"}],"nodes":[{"translation":[1.7616822719573977,-0.02193349599838257,1.663740158081055],"scale":[0.3443518280982971,0.022869374603033064,0.34435123205184939],"mesh":0,"extensions":{"ASOBO_unique_id":{"id":"cone-white"}},"name":"cone-white"}],"scene":0,"scenes":[{"nodes":[0],"name":"Scene"}],"extensionsUsed":["ASOBO_normal_map_convention","ASOBO_unique_id","ASOBO_asset_optimized"],"buffers":[{"byteLength":5244,"uri":"cone-white.bin"}]}
